<svg width="20" height="20" viewBox="0 0 20 20" fill="none" xmlns="http://www.w3.org/2000/svg">
<path d="M9.99996 7.49943V10.8328M9.99996 14.1661H10.0083M18.1086 14.9996L11.442 3.33295C11.2966 3.07645 11.0858 2.86311 10.8311 2.71467C10.5763 2.56624 10.2868 2.48804 9.99197 2.48804C9.69715 2.48804 9.4076 2.56624 9.15287 2.71467C8.89814 2.86311 8.68734 3.07645 8.54197 3.33295L1.87531 14.9996C1.72838 15.2541 1.65133 15.5429 1.65198 15.8367C1.65263 16.1305 1.73096 16.419 1.87901 16.6728C2.02707 16.9266 2.2396 17.1368 2.49505 17.282C2.75051 17.4272 3.03981 17.5023 3.33364 17.4996H16.667C16.9594 17.4993 17.2466 17.4221 17.4997 17.2757C17.7528 17.1293 17.963 16.9189 18.1091 16.6655C18.2551 16.4122 18.332 16.1249 18.3319 15.8325C18.3319 15.5401 18.2548 15.2529 18.1086 14.9996Z" stroke="#E5E5E7" stroke-width="1.5" stroke-linecap="round"/>
</svg>
